<svg xmlns="http://www.w3.org/2000/svg" role="img" viewBox="0 0 320 3554" width="320" height="3554" style="max-width: none; min-width: 320px; height: auto;" data-vrl-flow="rows">
<title>Synthetic annotated canyon</title><desc>Schematic sections, read top to bottom. Matching letter pairs continue the same route; row breaks are not route events. Curves and walking lengths are not to scale.</desc>
<defs><marker id="technical-320-arrow" markerWidth="8" markerHeight="8" refX="6" refY="3" orient="auto" markerUnits="strokeWidth"><path d="M0,0 L0,6 L7,3 z" fill="#111111"/></marker></defs>
<rect x="0" y="0" width="320" height="3554" fill="#e8f2f2"/>
<text x="24" y="44" font-family="ui-monospace, monospace" font-size="16" font-weight="700" fill="#111111" xml:space="preserve">Synthetic annotated </text><text x="24" y="72" font-family="ui-monospace, monospace" font-size="16" font-weight="700" fill="#111111" xml:space="preserve">canyon</text><text x="24" y="104" font-family="ui-monospace, monospace" font-size="14" font-weight="400" fill="#111111" xml:space="preserve">Schematic, not to scale. </text><text x="24" y="128" font-family="ui-monospace, monospace" font-size="14" font-weight="400" fill="#111111" xml:space="preserve">Read sections top to </text><text x="24" y="152" font-family="ui-monospace, monospace" font-size="14" font-weight="400" fill="#111111" xml:space="preserve">bottom and match </text><text x="24" y="176" font-family="ui-monospace, monospace" font-size="14" font-weight="400" fill="#111111" xml:space="preserve">continuation letters.</text><text x="24" y="204" font-family="ui-monospace, monospace" font-size="14" font-weight="400" fill="#111111" xml:space="preserve">Difficulty: no data</text><text x="24" y="232" font-family="ui-monospace, monospace" font-size="14" font-weight="400" fill="#111111" xml:space="preserve">Elevation change: no data</text><text x="24" y="260" font-family="ui-monospace, monospace" font-size="14" font-weight="400" fill="#111111" xml:space="preserve">Region: no data</text><text x="24" y="288" font-family="ui-monospace, monospace" font-size="14" font-weight="400" fill="#111111" xml:space="preserve">Country: no data</text><g class="vrl-row" data-section="1" data-elements="0">
<text x="24" y="360" font-family="ui-monospace, monospace" font-size="16" font-weight="700" fill="#111111" xml:space="preserve">Section 1</text><text x="56" y="444" font-family="ui-monospace, monospace" font-size="16" font-weight="700" fill="#111111" xml:space="preserve" data-element="0">Start S1</text><g class="vrl-annotation-icon" data-vrl-icon="start" aria-hidden="true" focusable="false" transform="translate(24 426) scale(0.75)" color="#111111"><g fill="none" stroke="currentColor" stroke-width="2" stroke-linecap="round" stroke-linejoin="round"><path d="M 4 16 a 12 12 0 1 0 24 0 a 12 12 0 1 0 -24 0"/><path d="M 13 10 22 16 13 22 Z"/></g></g><g class="vrl-continuation" data-code="A" data-role="out" data-section="2"><text x="24" y="508" font-family="ui-monospace, monospace" font-size="14" font-weight="400" fill="#111111" xml:space="preserve">A ↓ Continue to </text><text x="24" y="532" font-family="ui-monospace, monospace" font-size="14" font-weight="400" fill="#111111" xml:space="preserve">section 2</text></g>
</g><g class="vrl-row" data-section="2" data-elements="1">
<g class="vrl-continuation" data-code="A" data-role="in" data-section="1"><text x="24" y="620" font-family="ui-monospace, monospace" font-size="14" font-weight="400" fill="#111111" xml:space="preserve">A → From section 1</text></g><text x="24" y="680" font-family="ui-monospace, monospace" font-size="16" font-weight="700" fill="#111111" xml:space="preserve">Section 2</text><path class="vrl-row-wash" d="M 32 766 L 68 766 L 236 870 L 288 870 L 288 884 L 32 884 Z" fill="#d8d1bb" fill-opacity="0.4" stroke="none" stroke-width="2"/><path class="vrl-row-contour" d="M 32 766 L 68 766 L 236 870 L 288 870" fill="none" fill-opacity="0.4" stroke="#d8d1bb" stroke-width="2"/><path class="vrl-row-technical" d="M 68 752 C 136 786.6666666666666 192 821.3333333333334 236 856" fill="none" fill-opacity="0.4" stroke="#111111" stroke-width="2" marker-end="url(#technical-320-arrow)"/><path class="vrl-row-stage" d="M 124 786.6666666666666 L 140 786.6666666666666" fill="none" fill-opacity="0.4" stroke="#111111" stroke-width="2"/><path class="vrl-row-redirection" d="M 161 798 L 167 804 L 161 810 L 155 804 Z" fill="none" fill-opacity="0.4" stroke="#5865d6" stroke-width="2"/><text x="24" y="928" font-family="ui-monospace, monospace" font-size="16" font-weight="700" fill="#111111" xml:space="preserve" data-element="1">Rappel R1</text><text x="24" y="960" font-family="ui-monospace, monospace" font-size="14" font-weight="400" fill="#111111" xml:space="preserve" data-element="1">Physical height: 18m</text><text x="24" y="988" font-family="ui-monospace, monospace" font-size="14" font-weight="400" fill="#111111" xml:space="preserve" data-element="1">declared rope: 40m</text><text x="56" y="1016" font-family="ui-monospace, monospace" font-size="14" font-weight="400" fill="#111111" xml:space="preserve" data-element="1">bolts / 7 anchors</text><text x="24" y="1044" font-family="ui-monospace, monospace" font-size="14" font-weight="400" fill="#111111" xml:space="preserve" data-element="1">Check station</text><text x="24" y="1072" font-family="ui-monospace, monospace" font-size="14" font-weight="400" fill="#111111" xml:space="preserve" data-element="1">Stage 1: 6m</text><text x="24" y="1100" font-family="ui-monospace, monospace" font-size="14" font-weight="400" fill="#111111" xml:space="preserve" data-element="1">Stage 2: 12m</text><text x="24" y="1128" font-family="ui-monospace, monospace" font-size="14" font-weight="400" fill="#111111" xml:space="preserve" data-element="1">Redirection 1: 9m R</text><text x="24" y="1156" font-family="ui-monospace, monospace" font-size="14" font-weight="400" fill="#111111" xml:space="preserve" data-element="1">Vertical change: -18m</text><g class="vrl-annotation-icon" data-vrl-icon="bolt" aria-hidden="true" focusable="false" transform="translate(24 998) scale(0.75)" color="#111111"><g fill="none" stroke="currentColor" stroke-width="2" stroke-linecap="round" stroke-linejoin="round"><path d="M 12 7 a 4 4 0 1 0 8 0 a 4 4 0 1 0 -8 0"/><path d="M 10 23 a 6 6 0 1 0 12 0 a 6 6 0 1 0 -12 0"/><path d="M 13 11 v 6 M 19 11 v 6"/></g></g><g class="vrl-continuation" data-code="B" data-role="out" data-section="3"><text x="24" y="1216" font-family="ui-monospace, monospace" font-size="14" font-weight="400" fill="#111111" xml:space="preserve">B ↓ Continue to </text><text x="24" y="1240" font-family="ui-monospace, monospace" font-size="14" font-weight="400" fill="#111111" xml:space="preserve">section 3</text></g>
</g><g class="vrl-row" data-section="3" data-elements="2">
<g class="vrl-continuation" data-code="B" data-role="in" data-section="2"><text x="24" y="1328" font-family="ui-monospace, monospace" font-size="14" font-weight="400" fill="#111111" xml:space="preserve">B → From section 2</text></g><text x="24" y="1388" font-family="ui-monospace, monospace" font-size="16" font-weight="700" fill="#111111" xml:space="preserve">Section 3</text><path class="vrl-row-wash" d="M 32 1578 L 68 1578 L 236 1474 L 288 1474 L 288 1592 L 32 1592 Z" fill="#d8d1bb" fill-opacity="0.4" stroke="none" stroke-width="2"/><path class="vrl-row-contour" d="M 32 1578 L 68 1578 L 236 1474 L 288 1474" fill="none" fill-opacity="0.4" stroke="#d8d1bb" stroke-width="2"/><path class="vrl-row-technical" d="M 68 1564 C 136 1529.3333333333333 192 1494.6666666666667 236 1460" fill="none" fill-opacity="0.4" stroke="#111111" stroke-width="2" marker-end="url(#technical-320-arrow)"/><text x="24" y="1636" font-family="ui-monospace, monospace" font-size="16" font-weight="700" fill="#111111" xml:space="preserve" data-element="2">Climb C1</text><text x="24" y="1668" font-family="ui-monospace, monospace" font-size="14" font-weight="400" fill="#111111" xml:space="preserve" data-element="2">Physical height: 6m</text><text x="24" y="1696" font-family="ui-monospace, monospace" font-size="14" font-weight="400" fill="#111111" xml:space="preserve" data-element="2">6m</text><text x="24" y="1724" font-family="ui-monospace, monospace" font-size="14" font-weight="400" fill="#111111" xml:space="preserve" data-element="2">exposure: high</text><text x="24" y="1752" font-family="ui-monospace, monospace" font-size="14" font-weight="400" fill="#111111" xml:space="preserve" data-element="2">Shared boundary</text><text x="24" y="1780" font-family="ui-monospace, monospace" font-size="14" font-weight="400" fill="#111111" xml:space="preserve" data-element="2">Vertical change: 6m</text><g class="vrl-continuation" data-code="C" data-role="out" data-section="4"><text x="24" y="1840" font-family="ui-monospace, monospace" font-size="14" font-weight="400" fill="#111111" xml:space="preserve">C ↓ Continue to </text><text x="24" y="1864" font-family="ui-monospace, monospace" font-size="14" font-weight="400" fill="#111111" xml:space="preserve">section 4</text></g>
</g><g class="vrl-row" data-section="4" data-elements="3">
<g class="vrl-continuation" data-code="C" data-role="in" data-section="3"><text x="24" y="1952" font-family="ui-monospace, monospace" font-size="14" font-weight="400" fill="#111111" xml:space="preserve">C → From section 3</text></g><text x="24" y="2012" font-family="ui-monospace, monospace" font-size="16" font-weight="700" fill="#111111" xml:space="preserve">Section 4</text><path class="vrl-row-wash" d="M 32 2098 L 68 2098 L 236 2202 L 288 2202 L 288 2216 L 32 2216 Z" fill="#d8d1bb" fill-opacity="0.4" stroke="none" stroke-width="2"/><path class="vrl-row-contour" d="M 32 2098 L 68 2098 L 236 2202 L 288 2202" fill="none" fill-opacity="0.4" stroke="#d8d1bb" stroke-width="2"/><path class="vrl-row-technical" d="M 68 2084 C 136 2118.6666666666665 192 2153.3333333333335 236 2188" fill="none" fill-opacity="0.4" stroke="#111111" stroke-width="2" marker-end="url(#technical-320-arrow)"/><text x="24" y="2260" font-family="ui-monospace, monospace" font-size="16" font-weight="700" fill="#111111" xml:space="preserve" data-element="3">Downclimb D1</text><text x="24" y="2292" font-family="ui-monospace, monospace" font-size="14" font-weight="400" fill="#111111" xml:space="preserve" data-element="3">Physical height: unknown</text><text x="24" y="2320" font-family="ui-monospace, monospace" font-size="14" font-weight="400" fill="#111111" xml:space="preserve" data-element="3">Vertical change: unknown</text><g class="vrl-continuation" data-code="D" data-role="out" data-section="5"><text x="24" y="2380" font-family="ui-monospace, monospace" font-size="14" font-weight="400" fill="#111111" xml:space="preserve">D ↓ Continue to </text><text x="24" y="2404" font-family="ui-monospace, monospace" font-size="14" font-weight="400" fill="#111111" xml:space="preserve">section 5</text></g>
</g><g class="vrl-row" data-section="5" data-elements="4">
<g class="vrl-continuation" data-code="D" data-role="in" data-section="4"><text x="24" y="2492" font-family="ui-monospace, monospace" font-size="14" font-weight="400" fill="#111111" xml:space="preserve">D → From section 4</text></g><text x="24" y="2552" font-family="ui-monospace, monospace" font-size="16" font-weight="700" fill="#111111" xml:space="preserve">Section 5</text><path class="vrl-row-pool" d="M 48 2629 C 72 2669 232 2669 256 2629" fill="none" fill-opacity="0.4" stroke="#1479a6" stroke-width="2"/><text x="24" y="2724" font-family="ui-monospace, monospace" font-size="16" font-weight="700" fill="#111111" xml:space="preserve" data-element="4">Pool P1</text><text x="24" y="2756" font-family="ui-monospace, monospace" font-size="14" font-weight="400" fill="#111111" xml:space="preserve" data-element="4">dry</text><g class="vrl-continuation" data-code="E" data-role="out" data-section="6"><text x="24" y="2816" font-family="ui-monospace, monospace" font-size="14" font-weight="400" fill="#111111" xml:space="preserve">E ↓ Continue to </text><text x="24" y="2840" font-family="ui-monospace, monospace" font-size="14" font-weight="400" fill="#111111" xml:space="preserve">section 6</text></g>
</g><g class="vrl-row" data-section="6" data-elements="5">
<g class="vrl-continuation" data-code="E" data-role="in" data-section="5"><text x="24" y="2928" font-family="ui-monospace, monospace" font-size="14" font-weight="400" fill="#111111" xml:space="preserve">E → From section 5</text></g><text x="24" y="2988" font-family="ui-monospace, monospace" font-size="16" font-weight="700" fill="#111111" xml:space="preserve">Section 6</text><text x="56" y="3072" font-family="ui-monospace, monospace" font-size="16" font-weight="700" fill="#111111" xml:space="preserve" data-element="5">Exit E1</text><g class="vrl-annotation-icon" data-vrl-icon="finish" aria-hidden="true" focusable="false" transform="translate(24 3054) scale(0.75)" color="#111111"><g fill="none" stroke="currentColor" stroke-width="2" stroke-linecap="round" stroke-linejoin="round"><path d="M 4 16 a 12 12 0 1 0 24 0 a 12 12 0 1 0 -24 0"/><path d="M 11 11 h 10 v 10 H 11 Z"/></g></g>
</g><text x="24" y="3164" font-family="ui-monospace, monospace" font-size="16" font-weight="700" fill="#111111" xml:space="preserve">Reading the rows</text><text x="24" y="3196" font-family="ui-monospace, monospace" font-size="14" font-weight="400" fill="#111111" xml:space="preserve">Arrow: traversal </text><text x="24" y="3220" font-family="ui-monospace, monospace" font-size="14" font-weight="400" fill="#111111" xml:space="preserve">direction. Short ticks: </text><text x="24" y="3244" font-family="ui-monospace, monospace" font-size="14" font-weight="400" fill="#111111" xml:space="preserve">stage boundaries. </text><text x="24" y="3268" font-family="ui-monospace, monospace" font-size="14" font-weight="400" fill="#111111" xml:space="preserve">Diamonds: redirections. </text><text x="24" y="3292" font-family="ui-monospace, monospace" font-size="14" font-weight="400" fill="#111111" xml:space="preserve">Double ticks: station </text><text x="24" y="3316" font-family="ui-monospace, monospace" font-size="14" font-weight="400" fill="#111111" xml:space="preserve">side. Zigzag: compressed </text><text x="24" y="3340" font-family="ui-monospace, monospace" font-size="14" font-weight="400" fill="#111111" xml:space="preserve">walking distance. Text </text><text x="24" y="3364" font-family="ui-monospace, monospace" font-size="14" font-weight="400" fill="#111111" xml:space="preserve">retains declared facts </text><text x="24" y="3388" font-family="ui-monospace, monospace" font-size="14" font-weight="400" fill="#111111" xml:space="preserve">and counts.</text><text x="56" y="3416" font-family="ui-monospace, monospace" font-size="14" font-weight="400" fill="#111111" xml:space="preserve">Access start</text><text x="56" y="3444" font-family="ui-monospace, monospace" font-size="14" font-weight="400" fill="#111111" xml:space="preserve">Access finish</text><text x="56" y="3472" font-family="ui-monospace, monospace" font-size="14" font-weight="400" fill="#111111" xml:space="preserve">Bolts: count in text</text><text x="56" y="3500" font-family="ui-monospace, monospace" font-size="14" font-weight="400" fill="#111111" xml:space="preserve">Tree anchor</text><text x="56" y="3528" font-family="ui-monospace, monospace" font-size="14" font-weight="400" fill="#111111" xml:space="preserve">Slippery footing</text><g class="vrl-annotation-icon" data-vrl-icon="start" aria-hidden="true" focusable="false" transform="translate(24 3398) scale(0.75)" color="#111111"><g fill="none" stroke="currentColor" stroke-width="2" stroke-linecap="round" stroke-linejoin="round"><path d="M 4 16 a 12 12 0 1 0 24 0 a 12 12 0 1 0 -24 0"/><path d="M 13 10 22 16 13 22 Z"/></g></g><g class="vrl-annotation-icon" data-vrl-icon="finish" aria-hidden="true" focusable="false" transform="translate(24 3426) scale(0.75)" color="#111111"><g fill="none" stroke="currentColor" stroke-width="2" stroke-linecap="round" stroke-linejoin="round"><path d="M 4 16 a 12 12 0 1 0 24 0 a 12 12 0 1 0 -24 0"/><path d="M 11 11 h 10 v 10 H 11 Z"/></g></g><g class="vrl-annotation-icon" data-vrl-icon="bolt" aria-hidden="true" focusable="false" transform="translate(24 3454) scale(0.75)" color="#111111"><g fill="none" stroke="currentColor" stroke-width="2" stroke-linecap="round" stroke-linejoin="round"><path d="M 12 7 a 4 4 0 1 0 8 0 a 4 4 0 1 0 -8 0"/><path d="M 10 23 a 6 6 0 1 0 12 0 a 6 6 0 1 0 -12 0"/><path d="M 13 11 v 6 M 19 11 v 6"/></g></g><g class="vrl-annotation-icon" data-vrl-icon="tree" aria-hidden="true" focusable="false" transform="translate(24 3482) scale(0.75)" color="#111111"><g fill="none" stroke="currentColor" stroke-width="2" stroke-linecap="round" stroke-linejoin="round"><path d="M 16 3 9 11 h 4 l -7 8 h 8 v 9 h 4 v -9 h 8 l -7 -8 h 4 Z"/></g></g><g class="vrl-annotation-icon" data-vrl-icon="slippery" aria-hidden="true" focusable="false" transform="translate(24 3510) scale(0.75)" color="#111111"><g fill="none" stroke="currentColor" stroke-width="2" stroke-linecap="round" stroke-linejoin="round"><path d="M 16 3 30 28 H 2 Z"/><path d="M 16.5 11 a 1.5 1.5 0 1 0 3 0 a 1.5 1.5 0 1 0 -3 0"/><path d="M 16 15 l -5 2 7 3 5 -2 M 18 20 l -4 5 M 14 16 l 5 -1 M 7 25 h 3"/></g></g>
</svg>
